<svg xmlns="http://www.w3.org/2000/svg" width="1920.458" height="477.906" viewBox="0 0 1920.458 477.906"><defs><style>.a{fill:#e6ebf7;opacity:0.287;mix-blend-mode:multiply;isolation:isolate;}.b{fill:rgba(36,78,87,0.27);}.c{fill:#cbcbcb;}.d{fill:#b9b9b9;}.e{fill:#005dbb;}.f{fill:#e2e2e2;}.g{fill:#7ecf26;}.h{fill:#118098;}.i{fill:#1cc020;}.j{fill:#96d9c9;}.k{fill:#fff;}.l{fill:#183658;}.m{fill:#f7a491;}.n{fill:#f48c7f;}.o{fill:#244e57;}.p{fill:#f8a492;}.q{fill:#f47458;}.r{fill:#184655;}</style></defs><g transform="translate(0.458 -602.055)"><path class="a" d="M263.78,819.931V708.058h93.308V625.534h89.765v36.745h74.285V577.61H642.766v77.42l36.384.5V577.465H721.6V544.2h25.468V521.858h99.45V544.2h25.469v33.265h42.448v42.287l19.586.5L939.9,494.97h130.983v66.647l46.086.5V457.948h15.766V435.966H1271v21.982h15.766V598.321h29.107V554.552h24.256v-21.4H1375.3V470.674h50.938v62.475h35.171v21.4h24.256V628.6h16.979l13.341-.073V542.735l358.99,1.4V737.334h30.319V712.013h109.152v48.656h31.533V742.8h69.13v36.244h69.13v40.892Z" transform="translate(-264.238 260.03)"/><circle class="b" cx="36.939" cy="36.939" r="36.939" transform="translate(485.688 755.163) rotate(-85.067)"/><g transform="translate(-12544 -3107)"><path class="c" d="M120,424,88,444V304h32Z" transform="translate(14116 3732.03)"/><path class="d" d="M88,264h32v40H88Z" transform="translate(14116 3765.03)"/><circle class="e" cx="72" cy="72" r="72" transform="translate(14148 3892.03)"/><path class="f" d="M112,160H88a8,8,0,0,0-8,8v64a8,8,0,0,0,16,0V208h16a24,24,0,0,0,0-48Zm0,32H96V176h16a8,8,0,0,1,0,16Z" transform="translate(14116 3764.03)"/></g><g transform="translate(949)"><path class="g" d="M128.4,1563.377c8.347-10.858,57.65-71.592,87.493-81.287,32.942-10.7,1.894,31.8,1.894,31.8s58.439-64.119,79.884-58.338c19.658,5.3,0,45.042,0,45.042s22.141-22.008,48.99-22.008c26.131,0-18.976,80.613-21.371,84.791Z" transform="translate(576.97 -491.815)"/><g transform="translate(830.256 913.195)"><path class="h" d="M179.145,1651.229c.159,1,1.2,3.918.558,6.8a12.189,12.189,0,0,1-2.462,5.5,13.09,13.09,0,0,0,5.518-3.844c2.459-2.682,3.818-7.37,3.273-9.393-.579-4.265-4.113-6.339-5.572-5.093C178.96,1646.413,178.92,1649.01,179.145,1651.229Z" transform="translate(-99.764 -1535.999)"/><path class="h" d="M248.578,1676.174c.158,1,1.2,3.918.558,6.8a12.192,12.192,0,0,1-2.462,5.5,13.09,13.09,0,0,0,5.518-3.844c2.459-2.682,3.817-7.369,3.273-9.393-.579-4.265-4.113-6.339-5.573-5.093C248.393,1671.358,248.354,1673.956,248.578,1676.174Z" transform="translate(-190.675 -1553.227)"/><path class="h" d="M319.128,1707.728c.159,1,1.2,3.918.558,6.8a12.193,12.193,0,0,1-2.462,5.5,13.086,13.086,0,0,0,5.518-3.844c2.459-2.681,3.818-7.369,3.273-9.392-.579-4.266-4.113-6.339-5.573-5.093C318.944,1702.913,318.9,1705.51,319.128,1707.728Z" transform="translate(-283.05 -1575.021)"/><path class="h" d="M166.311,1711.463c-.441-.828-1.294-3.559-3.369-5.321a11.207,11.207,0,0,0-4.875-2.677,12.073,12.073,0,0,1,6.2-.258c3.3.6,6.912,3.293,7.636,5.089,1.946,3.467.495,6.974-1.274,6.873C168.854,1715.115,167.379,1713.224,166.311,1711.463Z" transform="translate(-80.518 -1576.097)"/><path class="h" d="M238.533,1737.113c-.441-.828-1.294-3.559-3.369-5.321a11.2,11.2,0,0,0-4.875-2.676,12.063,12.063,0,0,1,6.2-.258c3.3.6,6.912,3.293,7.636,5.089,1.946,3.468.495,6.975-1.274,6.874C241.076,1740.766,239.6,1738.874,238.533,1737.113Z" transform="translate(-175.081 -1593.813)"/><path class="h" d="M122.388,1662.869a9.389,9.389,0,0,1-.891,3.945,7.2,7.2,0,0,1-2.37,2.673,7.736,7.736,0,0,0,3.8-1.188c1.867-1.078,3.468-3.488,3.519-4.73.429-2.517-1.2-4.322-2.249-3.877C123.138,1660.111,122.655,1661.573,122.388,1662.869Z" transform="translate(-22.158 -1546.209)"/><path class="h" d="M113.817,1691.7a9.347,9.347,0,0,0-2.816-2.895,7.178,7.178,0,0,0-3.414-1.034,7.75,7.75,0,0,1,3.862-.984c2.153-.062,4.774,1.152,5.465,2.183,1.678,1.919,1.229,4.314.105,4.485C115.895,1693.658,114.72,1692.666,113.817,1691.7Z" transform="translate(-10.09 -1564.966)"/><g transform="translate(0)"><g transform="translate(0 10.094)"><path class="h" d="M270.219,1347.413c-23.876,37.417-41.567,82.311-51.53,126.469h-2.575c9.921-43.232,28.434-88.495,52.271-125.87,5.54-8.687,11.522-18.992,21.894-22.38.2-.065.276.24.085.312C280.89,1329.525,275.4,1339.29,270.219,1347.413Z" transform="translate(-216.114 -1325.622)"/></g><g transform="translate(7.415 57.185)"><path class="h" d="M110.8,1579.021c26.681-36.406,60.3-71.836,98.869-101.1.385-.292.9.381.517.68a490.9,490.9,0,0,0-96.811,100.418Z" transform="translate(-110.8 -1477.852)"/></g><path class="h" d="M250.6,1304.1c.615.907,2.967,3.273,3.659,6.38a13.188,13.188,0,0,1,.117,6.51,14.2,14.2,0,0,0,3.628-6.3c1.173-3.752.352-8.958-1.107-10.683-2.52-3.9-6.921-4.294-7.776-2.4C248.216,1299.479,249.367,1302.034,250.6,1304.1Z" transform="translate(-194.315 -1295.416)"/><path class="h" d="M244.336,1411.067c-.892-.635-3.2-3.041-6.285-3.8a13.052,13.052,0,0,0-6.484-.245,14.127,14.127,0,0,1,6.348-3.516c3.763-1.1,8.933-.176,10.623,1.322,3.835,2.6,4.142,7.028,2.241,7.848C248.89,1413.552,246.367,1412.347,244.336,1411.067Z" transform="translate(-182.336 -1368.987)"/><path class="h" d="M272.2,1458.387c-.892-.635-3.2-3.042-6.286-3.8a13.054,13.054,0,0,0-6.484-.246,14.136,14.136,0,0,1,6.348-3.516c3.763-1.1,8.933-.176,10.623,1.322,3.835,2.6,4.142,7.028,2.242,7.848C276.756,1460.873,274.232,1459.667,272.2,1458.387Z" transform="translate(-218.822 -1401.669)"/><path class="h" d="M172.8,1568.147c-.892-.635-3.2-3.042-6.285-3.8a13.053,13.053,0,0,0-6.484-.245,14.13,14.13,0,0,1,6.349-3.516c3.762-1.1,8.933-.176,10.623,1.321,3.835,2.6,4.142,7.029,2.241,7.848C177.359,1570.632,174.836,1569.427,172.8,1568.147Z" transform="translate(-88.678 -1477.475)"/><path class="h" d="M122.023,1523.256c-.892-.634-3.2-3.041-6.285-3.8a13.05,13.05,0,0,0-6.484-.245,14.133,14.133,0,0,1,6.349-3.516c3.763-1.1,8.933-.177,10.623,1.321,3.835,2.6,4.142,7.029,2.241,7.848C126.577,1525.742,124.054,1524.537,122.023,1523.256Z" transform="translate(-22.187 -1446.472)"/><path class="h" d="M288.788,1357.481c.75.8,3.445,2.762,4.616,5.722a13.185,13.185,0,0,1,1.138,6.41,14.208,14.208,0,0,0,2.593-6.795c.569-3.892-1.06-8.9-2.772-10.375-3.1-3.451-7.51-3.145-8.056-1.143C285.705,1353.3,287.243,1355.64,288.788,1357.481Z" transform="translate(-244.561 -1332.237)"/><path class="h" d="M321.47,1407.881c1.067.568,4.794,1.6,6.668,4.4a11.38,11.38,0,0,1,2.25,6.663c-.2.182,2.657-4.109,2.533-8.7.264-4.588-2.452-9.478-4.846-10.383-4.432-2.515-10.1-.272-10.567,2.2C316.973,1404.542,319.247,1406.492,321.47,1407.881Z" transform="translate(-289.92 -1366.036)"/><path class="h" d="M364.035,1488.282c1.147.38,4.993.766,7.31,3.208a11.368,11.368,0,0,1,3.335,6.189c-.166.213,1.93-4.5,1.038-9.005-.509-4.568-4.005-8.929-6.517-9.418-4.79-1.731-10,1.437-10.048,3.95C359.042,1485.75,361.611,1487.288,364.035,1488.282Z" transform="translate(-345.826 -1421.294)"/><path class="h" d="M243.1,1549.836c.836.523,3.809,1.573,5.174,3.957a9.285,9.285,0,0,1,1.452,5.548c-.173.137,2.394-3.19,2.554-6.934.475-3.717-1.456-7.85-3.352-8.723-3.462-2.3-8.2-.8-8.72,1.185C239.634,1546.863,241.374,1548.579,243.1,1549.836Z" transform="translate(-185.416 -1465.333)"/><path class="h" d="M196.34,1329.138a10.072,10.072,0,0,0-3.552-2.522,7.746,7.746,0,0,0-3.825-.43,8.374,8.374,0,0,1,3.909-1.8c2.274-.487,5.292.288,6.226,1.248,2.155,1.709,2.144,4.339.984,4.741C198.926,1330.808,197.486,1329.985,196.34,1329.138Z" transform="translate(-118.1 -1314.57)"/><path class="h" d="M206.779,1296.873a10.141,10.141,0,0,1-.179,4.363,7.791,7.791,0,0,1-2,3.3,8.365,8.365,0,0,0,3.808-2.007c1.772-1.51,3-4.381,2.816-5.71-.033-2.756-2.116-4.353-3.142-3.677C207.039,1293.8,206.81,1295.445,206.779,1296.873Z" transform="translate(-133.325 -1292.989)"/><path class="h" d="M89.957,1484.539a10.084,10.084,0,0,0-3.553-2.521,7.751,7.751,0,0,0-3.825-.43,8.384,8.384,0,0,1,3.909-1.8c2.274-.487,5.293.288,6.227,1.248,2.155,1.709,2.144,4.34.984,4.741C92.543,1486.209,91.1,1485.386,89.957,1484.539Z" transform="translate(21.192 -1421.899)"/><path class="h" d="M102.912,1451.658a10.143,10.143,0,0,1,.178,4.363,7.807,7.807,0,0,1-1.72,3.455,8.382,8.382,0,0,0,3.631-2.313c1.643-1.65,2.636-4.613,2.34-5.922-.258-2.744-2.465-4.164-3.431-3.406C102.921,1448.572,102.826,1450.232,102.912,1451.658Z" transform="translate(2.462 -1399.795)"/></g><path class="h" d="M217.822,1689.366a124.265,124.265,0,0,0-20.364,3.644c-12.189,3.2-23.914,7.935-35.452,12.965-5.672,2.472-11.381,4.911-16.944,7.622a61.184,61.184,0,0,0-7.616,4.162,84.526,84.526,0,0,0-8.883,7.268l2.649.079a87.99,87.99,0,0,1,17.679-11.529c21.859-10.531,44.566-21.329,68.946-24.01A.1.1,0,0,0,217.822,1689.366Z" transform="translate(-116.483 -1566.75)"/></g></g><path class="g" d="M354.779,1563.377c-8.347-10.858-57.649-71.592-87.493-81.287-32.942-10.7-1.894,31.8-1.894,31.8s-58.439-64.119-79.884-58.338c-19.658,5.3,0,45.042,0,45.042s-22.141-22.008-48.99-22.008c-26.131,0,18.976,80.613,21.371,84.791Z" transform="translate(1378.774 -491.815)"/><g transform="translate(27 851.598)"><path class="i" d="M346.333,1310.764s-20.515-118.377-28.811-130.6c-11.464-16.894-25.719,34.948-26.415,30.391-6.566-43.032-5.192-97.3-35.9-105.529-17.456-4.675,1.154,40.533-1.014,52.181s-31.207-29.938-49.091-51.94-28.836-9.863-18.468,16.829c10.025,25.811,46.341,56.055,38.211,58.643s-53.713-33.367-60.584-20.116c-8.423,16.247,61.8,44.927,54.752,48.162s-40.5-11.975-40.5.967,46.224,16.177,45.022,21.773c-1.947,9.062-30.983-14.137-33.251-1.565-2.319,12.86,39.417,13.834,37.959,23.893-.838,5.78-11.35-.27-13.251,7.676-4.336,18.119,61.432,43.51,61.432,43.51Z" transform="translate(-138.509 -1093.863)"/><path class="g" d="M354.779,1563.377c-8.347-10.858-57.649-71.592-87.493-81.287-32.942-10.7-1.894,31.8-1.894,31.8s-58.439-64.119-79.884-58.338c-19.658,5.3,0,45.042,0,45.042s-22.141-22.008-48.99-22.008c-26.131,0,18.976,80.613,21.371,84.791Z" transform="translate(-114.226 -1343.413)"/><g transform="translate(0 61.598)"><path class="h" d="M184.24,1651.229c-.159,1-1.2,3.918-.558,6.8a12.189,12.189,0,0,0,2.462,5.5,13.09,13.09,0,0,1-5.518-3.844c-2.459-2.682-3.818-7.37-3.273-9.393.579-4.265,4.113-6.339,5.572-5.093C184.425,1646.413,184.465,1649.01,184.24,1651.229Z" transform="translate(-147.953 -1535.999)"/><path class="h" d="M253.674,1676.174c-.158,1-1.2,3.918-.558,6.8a12.192,12.192,0,0,0,2.462,5.5,13.091,13.091,0,0,1-5.518-3.844c-2.459-2.682-3.817-7.369-3.273-9.393.579-4.265,4.113-6.339,5.573-5.093C253.858,1671.358,253.9,1673.956,253.674,1676.174Z" transform="translate(-195.908 -1553.227)"/><path class="h" d="M324.224,1707.728c-.159,1-1.2,3.918-.558,6.8a12.193,12.193,0,0,0,2.462,5.5,13.086,13.086,0,0,1-5.518-3.844c-2.459-2.681-3.818-7.369-3.273-9.392.579-4.266,4.113-6.339,5.573-5.093C324.408,1702.913,324.448,1705.51,324.224,1707.728Z" transform="translate(-244.634 -1575.021)"/><path class="h" d="M164.588,1711.463c.441-.828,1.294-3.559,3.369-5.321a11.207,11.207,0,0,1,4.875-2.677,12.073,12.073,0,0,0-6.2-.258c-3.3.6-6.912,3.293-7.636,5.089-1.946,3.467-.495,6.974,1.274,6.873C162.045,1715.115,163.519,1713.224,164.588,1711.463Z" transform="translate(-134.713 -1576.097)"/><path class="h" d="M236.81,1737.113c.441-.828,1.294-3.559,3.369-5.321a11.2,11.2,0,0,1,4.875-2.676,12.063,12.063,0,0,0-6.2-.258c-3.3.6-6.912,3.293-7.636,5.089-1.946,3.468-.495,6.975,1.274,6.874C234.268,1740.766,235.742,1738.874,236.81,1737.113Z" transform="translate(-184.594 -1593.813)"/><path class="h" d="M123.258,1662.869a9.388,9.388,0,0,0,.891,3.945,7.2,7.2,0,0,0,2.37,2.673,7.736,7.736,0,0,1-3.8-1.188c-1.867-1.078-3.468-3.488-3.519-4.73-.429-2.517,1.2-4.322,2.249-3.877C122.507,1660.111,122.991,1661.573,123.258,1662.869Z" transform="translate(-107.819 -1546.209)"/><path class="h" d="M111.791,1691.7a9.348,9.348,0,0,1,2.816-2.895,7.178,7.178,0,0,1,3.414-1.034,7.75,7.75,0,0,0-3.862-.984c-2.153-.062-4.774,1.152-5.465,2.183-1.678,1.919-1.229,4.314-.105,4.485C109.713,1693.658,110.888,1692.666,111.791,1691.7Z" transform="translate(-99.85 -1564.966)"/><g transform="translate(41.308 10.094)"><path class="h" d="M236.369,1347.413c23.876,37.417,41.567,82.311,51.53,126.469h2.575c-9.922-43.232-28.434-88.495-52.271-125.87-5.54-8.687-11.522-18.992-21.894-22.38-.2-.065-.276.24-.085.312C225.7,1329.525,231.186,1339.29,236.369,1347.413Z" transform="translate(-216.114 -1325.622)"/></g><g transform="translate(8.73 57.185)"><path class="h" d="M210.323,1579.021c-26.681-36.406-60.3-71.836-98.869-101.1-.385-.292-.9.381-.517.68a490.9,490.9,0,0,1,96.811,100.418Z" transform="translate(-110.8 -1477.852)"/></g><path class="h" d="M256.761,1304.1c-.615.907-2.967,3.273-3.659,6.38a13.188,13.188,0,0,0-.117,6.51,14.2,14.2,0,0,1-3.628-6.3c-1.173-3.752-.352-8.958,1.107-10.683,2.52-3.9,6.921-4.294,7.776-2.4C259.147,1299.479,258,1302.034,256.761,1304.1Z" transform="translate(-197.38 -1295.416)"/><path class="h" d="M239.145,1411.067c.892-.635,3.2-3.041,6.285-3.8a13.052,13.052,0,0,1,6.484-.245,14.128,14.128,0,0,0-6.348-3.516c-3.763-1.1-8.933-.176-10.623,1.322-3.835,2.6-4.142,7.028-2.241,7.848C234.59,1413.552,237.113,1412.347,239.145,1411.067Z" transform="translate(-185.476 -1368.987)"/><path class="h" d="M267.01,1458.387c.892-.635,3.2-3.042,6.286-3.8a13.054,13.054,0,0,1,6.484-.246,14.136,14.136,0,0,0-6.348-3.516c-3.763-1.1-8.934-.176-10.623,1.322-3.835,2.6-4.142,7.028-2.242,7.848C262.456,1460.873,264.979,1459.667,267.01,1458.387Z" transform="translate(-204.722 -1401.669)"/><path class="h" d="M167.613,1568.147c.892-.635,3.2-3.042,6.285-3.8a13.053,13.053,0,0,1,6.484-.245,14.13,14.13,0,0,0-6.349-3.516c-3.762-1.1-8.933-.176-10.623,1.321-3.835,2.6-4.142,7.029-2.241,7.848C163.059,1570.632,165.582,1569.427,167.613,1568.147Z" transform="translate(-136.072 -1477.475)"/><path class="h" d="M116.832,1523.256c.892-.634,3.2-3.041,6.285-3.8a13.05,13.05,0,0,1,6.484-.245,14.133,14.133,0,0,0-6.349-3.516c-3.763-1.1-8.933-.177-10.623,1.321-3.835,2.6-4.142,7.029-2.241,7.848C112.277,1525.742,114.8,1524.537,116.832,1523.256Z" transform="translate(-100.999 -1446.472)"/><path class="h" d="M294.635,1357.481c-.75.8-3.445,2.762-4.616,5.722a13.186,13.186,0,0,0-1.138,6.41,14.207,14.207,0,0,1-2.593-6.795c-.569-3.892,1.06-8.9,2.772-10.375,3.1-3.451,7.51-3.145,8.056-1.143C297.717,1353.3,296.179,1355.64,294.635,1357.481Z" transform="translate(-223.193 -1332.237)"/><path class="h" d="M328.9,1407.881c-1.067.568-4.794,1.6-6.668,4.4a11.38,11.38,0,0,0-2.25,6.663c.2.182-2.657-4.109-2.533-8.7-.264-4.588,2.452-9.478,4.845-10.383,4.432-2.515,10.1-.272,10.567,2.2C333.4,1404.542,331.121,1406.492,328.9,1407.881Z" transform="translate(-244.78 -1366.036)"/><path class="h" d="M371.054,1488.282c-1.147.38-4.993.766-7.31,3.208a11.367,11.367,0,0,0-3.335,6.189c.166.213-1.93-4.5-1.038-9.005.509-4.568,4.005-8.929,6.517-9.418,4.79-1.731,10,1.437,10.048,3.95C376.047,1485.75,373.478,1487.288,371.054,1488.282Z" transform="translate(-273.595 -1421.294)"/><path class="h" d="M249.352,1549.836c-.836.523-3.809,1.573-5.174,3.957a9.285,9.285,0,0,0-1.452,5.548c.173.137-2.394-3.19-2.554-6.934-.475-3.717,1.456-7.85,3.352-8.723,3.462-2.3,8.2-.8,8.72,1.185C252.821,1546.863,251.081,1548.579,249.352,1549.836Z" transform="translate(-191.371 -1465.333)"/><path class="h" d="M193.48,1329.138a10.072,10.072,0,0,1,3.552-2.522,7.746,7.746,0,0,1,3.825-.43,8.373,8.373,0,0,0-3.909-1.8c-2.274-.487-5.292.288-6.226,1.248-2.155,1.709-2.144,4.339-.984,4.741C190.894,1330.808,192.334,1329.985,193.48,1329.138Z" transform="translate(-156.052 -1314.57)"/><path class="h" d="M209.069,1296.873a10.141,10.141,0,0,0,.178,4.363,7.791,7.791,0,0,0,2,3.3,8.365,8.365,0,0,1-3.808-2.007c-1.772-1.51-3-4.381-2.816-5.71.033-2.756,2.116-4.353,3.142-3.677C208.808,1293.8,209.038,1295.445,209.069,1296.873Z" transform="translate(-166.854 -1292.989)"/><path class="h" d="M87.1,1484.539a10.084,10.084,0,0,1,3.553-2.521,7.751,7.751,0,0,1,3.825-.43,8.383,8.383,0,0,0-3.909-1.8c-2.274-.487-5.292.288-6.227,1.248-2.155,1.709-2.144,4.34-.984,4.741C84.512,1486.209,85.952,1485.386,87.1,1484.539Z" transform="translate(-82.577 -1421.899)"/><path class="h" d="M105.849,1451.658a10.143,10.143,0,0,0-.178,4.363,7.806,7.806,0,0,0,1.72,3.455,8.382,8.382,0,0,1-3.631-2.313c-1.643-1.65-2.636-4.613-2.34-5.922.258-2.744,2.465-4.164,3.431-3.406C105.84,1448.572,105.934,1450.232,105.849,1451.658Z" transform="translate(-95.554 -1399.795)"/><path class="h" d="M128.668,1689.366a124.264,124.264,0,0,1,20.364,3.644c12.189,3.2,23.914,7.935,35.452,12.965,5.672,2.472,11.381,4.911,16.944,7.622a61.186,61.186,0,0,1,7.616,4.162,84.53,84.53,0,0,1,8.883,7.268l-2.649.079a87.989,87.989,0,0,0-17.679-11.529c-21.859-10.531-44.566-21.329-68.946-24.01A.1.1,0,0,1,128.668,1689.366Z" transform="translate(-114.339 -1566.75)"/></g></g><path class="j" d="M710.86,1282.175c6.471-5.545,10.384-11.427,9.382-17.277-1.788-10.436-16.6-3.729-17.166-11.264-.979-13.11,55.57-10.044,53.7-26.853-1.827-16.435-43.391,10.449-45.13-1.428-1.074-7.335,61.769-6.714,63.046-23.39s-45.471-.542-54.681-5.441,88.6-34.578,78.811-56.384c-7.985-17.785-73.191,23.821-83.931,19.643s41.365-39.384,57.472-71.6c16.657-33.319,3.042-50.095-23.32-23.6s-69.744,77.072-71.527,61.839,27.851-71.556,3.778-67.34c-42.348,7.417-45.845,77.488-58.972,132.254-1.39,5.8-15.557-62.475-32.731-41.894-8.834,10.586,7.549,88.541,17.761,132.735Z" transform="translate(-404.007 -213.014)"/><path class="i" d="M1478.207,336.784l2.756-6.22-3.562-5.8a.935.935,0,0,1,.893-1.42l6.768.7,4.413-5.179a.935.935,0,0,1,1.626.41l1.427,6.653,6.289,2.6a.935.935,0,0,1,.112,1.673l-5.886,3.413-.526,6.784a.935.935,0,0,1-1.557.624l-5.065-4.544-6.614,1.6A.935.935,0,0,1,1478.207,336.784Z" transform="translate(-1394.624 426.426)"/><path class="h" d="M1729.658,227.838l-6.871-4.276,5.659-11.816-9.277-7.491,2.789-9.535-4.826-1.412-3.73,12.753,8.791,7.1-5.886,12.293,10.34,6.434Z" transform="translate(-1557.717 512.916)"/><path class="i" d="M1478.207,336.784l2.756-6.22-3.562-5.8a.935.935,0,0,1,.893-1.42l6.768.7,4.413-5.179a.935.935,0,0,1,1.626.41l1.427,6.653,6.289,2.6a.935.935,0,0,1,.112,1.673l-5.886,3.413-.526,6.784a.935.935,0,0,1-1.557.624l-5.065-4.544-6.614,1.6A.935.935,0,0,1,1478.207,336.784Z" transform="translate(-1282.592 283.518)"/><g transform="translate(228.428 729.331)"><g transform="translate(121.225)"><path class="g" d="M2151.3,927.55h116.662a7.309,7.309,0,0,1,7.3,7.321v48.308a7.309,7.309,0,0,1-7.3,7.321h-91.848c-3.717,5.2-10.457,14.525-11.052,14.525-.557,0,.515-8.8,1.271-14.525H2151.3a7.309,7.309,0,0,1-7.3-7.321V934.871A7.309,7.309,0,0,1,2151.3,927.55Z" transform="translate(-2144 -927.55)"/><rect class="k" width="35.666" height="3.189" rx="1.595" transform="translate(80.616 17.196)"/><rect class="k" width="24.092" height="3.189" rx="1.595" transform="translate(92.19 31.119)"/><path class="k" d="M1.594,0h22.92a1.595,1.595,0,0,1,1.595,1.595v0a1.595,1.595,0,0,1-1.595,1.595H1.595A1.595,1.595,0,0,1,0,1.595v0A1.594,1.594,0,0,1,1.594,0Z" transform="translate(59.633 31.119)"/><path class="k" d="M1.595,0H36.113a1.595,1.595,0,0,1,1.595,1.595v0a1.594,1.594,0,0,1-1.594,1.594H1.595A1.595,1.595,0,0,1,0,1.595v0A1.595,1.595,0,0,1,1.595,0Z" transform="translate(14.444 31.119)"/><path class="k" d="M1.594,0H56.9A1.595,1.595,0,0,1,58.5,1.595v0A1.595,1.595,0,0,1,56.9,3.189H1.595A1.595,1.595,0,0,1,0,1.595v0A1.594,1.594,0,0,1,1.594,0Z" transform="translate(14.444 17.196)"/><path class="k" d="M1.595,0H46.183a1.595,1.595,0,0,1,1.595,1.595v0a1.594,1.594,0,0,1-1.594,1.594H1.595A1.595,1.595,0,0,1,0,1.595v0A1.595,1.595,0,0,1,1.595,0Z" transform="translate(68.503 45.306)"/><path class="k" d="M1.595,0H46.2a1.595,1.595,0,0,1,1.595,1.595v0A1.594,1.594,0,0,1,46.2,3.189H1.595A1.595,1.595,0,0,1,0,1.595v0A1.595,1.595,0,0,1,1.595,0Z" transform="translate(14.444 45.306)"/></g><g transform="translate(0 4.182)"><path class="l" d="M2392.846,1151.531l.948.851a1.163,1.163,0,0,0,1.639-.041l16.826-18.56a1.153,1.153,0,0,0-.127-1.628l-.948-.852a1.165,1.165,0,0,0-1.64.042l-16.825,18.559A1.152,1.152,0,0,0,2392.846,1151.531Z" transform="translate(-2257.96 -1055.001)"/><path class="m" d="M2403.8,1144.427c2.249-1.835,19.641,5.822,19.419,8.488s12.137,28.508,12.137,28.508l21.353-17.084.009,0c.189-.618,2.213-7.262,2.311-8.451.1-1.247,3.712-3.428,5.387-3.107s-1.433,2.431-1.636,2.818c-.556,1.054,1.592,1.449,1.592,1.449s6.17-3.4,6.3-5.4,1.4-6.186,2.738-5.31c.687.452.681,3.424.467,4.833.4-1.6.958-3.407,1.5-3.586,1-.327,1.495.947,1.314,1.572s-1.793,7.42-2.283,8.185c-.479.747-10.442,8.8-11.878,10.55,0,0-27.62,31.681-29.586,32.51-1.724.727-7.878-10.19-13.69-17.438S2396.77,1150.16,2403.8,1144.427Z" transform="translate(-2325.956 -1062.975)"/><path class="n" d="M2743.1,1720.027s-3.8,3.716-3.881,5.08-.337,15.974,1.214,17.337,6.1,2.331,4.637,3.865c-1.105,1.16-9.614.912-15.252.6-1.645-.091-3.71-13.268-4.362-15.205-.946-2.812-3.25-9.148-2.388-11.108.419-.956,2.426-2.918,5.253-4.751,2.975-1.927,5.82-6.219,5.82-6.219Z" transform="translate(-2720.986 -1405.621)"/><path class="m" d="M2597.225,1757.662s-3.4,9.628-3.4,9.653c-.253,1.525-1.246,5.293-1.246,6.68,0,5.209,23.412-4.422,18.165-6.73a5.563,5.563,0,0,1-2.121-3.651c-.241-2.731,1.972-6.158,1.972-6.158Z" transform="translate(-2535.796 -1434.603)"/><g transform="translate(8.631 143.784)"><path class="o" d="M2558.431,1303.037s1.708,17.259,1.708,17.516c0,27.919,5.516,82.455,4.466,87.7-2.559,12.8-30.1,78.113-30.1,78.113l-14.885-1.785,19.4-78.2-7.138-31.474-10.1-62.214Z" transform="translate(-2468.905 -1303.037)"/><path class="o" d="M2586.108,1322.089l-2.825,16.358-7.641,67.323-29.1,65.8s4.094,9.574,10.132,10.919l46.318-67.554,28.772-86.442-1.01-19.2Z" transform="translate(-2546.54 -1306.824)"/></g><path class="h" d="M2542.146,1129.286,2521.5,1131.4s-.948-16.979-.948-25.078c0-9.826.834-22.482,2.017-22.21,3.319.764,7.789,2.6,10.451,6.272C2542.233,1103.08,2542.146,1129.286,2542.146,1129.286Z" transform="translate(-2438.052 -1026.596)"/><path class="h" d="M2576.3,1103.585c.433,3,8.367,84.443,8.367,84.443-37.583,18.213-58.321,3.244-58.321,3.244s1.229-57.193-.244-64.978c-.56-2.961-1.2-15.535-1.005-26.2.134-7.309.727-13.725,2.141-14.133a83,83,0,0,1,14.5-3.092c4.553-.474,22.242-.749,25.406.318A40.482,40.482,0,0,1,2576.3,1103.585Z" transform="translate(-2482.343 -1025.592)"/><path class="h" d="M2726.519,1725.172s8.747,24.713,12.172,25.906c.909.316,5.272,1.121,6.095,3.056a8.4,8.4,0,0,1,0,2.531h-18.233s-2.306-10.889-3.217-15.673c0,0-4.827-11.689-4.291-12.752S2726.519,1725.172,2726.519,1725.172Z" transform="translate(-2719.003 -1415.041)"/><path class="h" d="M2546.538,1790.72l2.682-8.5s5.63,2.389,8.446,1.991a85.021,85.021,0,0,0,8.312-1.991c11.237,3.71,20.444,5.512,18.769,8.5h-38.208Z" transform="translate(-2491.09 -1449.61)"/><g transform="translate(104.486 116.193)"><path class="m" d="M2509.328,1254.264a4.885,4.885,0,0,0,.567-.423c-.668-7.98-.548-15.712,1.948-18.325-.06-.126-.606-1.289-1.175-2.5-2.892,2.245-4.267,8.208-3.728,17.888a16.758,16.758,0,0,0,.381,2C2508.159,1253.839,2508.92,1254.436,2509.328,1254.264Z" transform="translate(-2506.824 -1233.021)"/></g><path class="p" d="M30.153,24.209a2.3,2.3,0,0,1,.009.525c-.554,5.64-5,56.629-5.786,58.643C23.667,85.2,1.951,94.6,1.951,94.6L0,81.973l11.432-6.6c.451-1.713,8.639-38.456,8.639-38.456s1.488-5.828,2.156-9.319c-.3-.841-.6-1.635-.867-2.287a20.988,20.988,0,0,0-2.169-3.5,23.984,23.984,0,0,1-2.57-4.561c-.214-.823-.6-2.532-.815-3.564s-.516-2.233-.566-2.793a5.412,5.412,0,0,0-.65-1.5.9.9,0,0,1,1.06-1.3c.731.244,1.3,1.194,1.652,1.785.991,1.671,1.519,4.722,1.765,4.56S20.179,9.1,20.317,8.516,21.5,1.921,22.083.822,23.448-.092,23.654.6c.178.592-.649,9-.649,9s-.1,1.073.366.737S24.6,2.365,24.93,1.249,26-.461,26.628.437c.766,1.093-.551,9.19-.551,9.19s-.147,1.018.286.923.976-6.6,1.313-7.163a.854.854,0,0,1,1.594.173c.478,1.1-.761,8.323-.761,8.323s.061.575.331.384,1.128-5.7,1.687-6.214a.591.591,0,0,1,.861-.013c1.026.7-.547,5.947-.531,8.554s-1.19,5.538-.831,8.643C30.05,23.431,30.113,23.909,30.153,24.209Z" transform="translate(105.776 137.081) rotate(120)"/><path class="h" d="M2648.089,1128.451l15.662,9.575s10.078-15.047,15.488-20.4c6.776-6.711-2.469-27.269-6.835-26.106C2662.638,1094.118,2648.089,1128.451,2648.089,1128.451Z" transform="translate(-2627.806 -1031.056)"/><path class="m" d="M2593.447,1037.219l-2.675,17.688s9.767,21.06,15.6,19.234c4.892-1.532,1.882-20.167,1.882-20.167s-2.667-10.008-1.867-15.015S2593.447,1037.219,2593.447,1037.219Z" transform="translate(-2532.746 -997.549)"/><path class="q" d="M2610.128,1038.958c.8-5.008-12.939-1.739-12.939-1.739l-.222,1.467a8.169,8.169,0,0,0,1.49,2.465,18.06,18.06,0,0,0,12.013,5.455A27.37,27.37,0,0,1,2610.128,1038.958Z" transform="translate(-2536.487 -997.549)"/><g transform="translate(47.444)"><path class="m" d="M2577.918,966.833c-.388-.141-3.112,20.145,2.058,25.727s15.241,7.409,18.855,3.013c3.995-4.863,3.795-26.667-4.243-32.409S2577.918,966.833,2577.918,966.833Z" transform="translate(-2566.914 -952.187)"/><path class="r" d="M2608.752,938.287a22.307,22.307,0,0,0-11.715,6.7c-2.821.334-6.655,1.9-10.615,8.476-4.868,8.088-1.272,17.048,4.394,21.445s5.588,9.474,5.588,9.474l.9-2.626a14.731,14.731,0,0,0,.71-6.187,12.142,12.142,0,0,0-.917-3.72c-1.363-2.936,2.927-4.886,4.131-7.329.926-1.881.971-6.184,2.431-9.293l1.742-2.374s4.022-3.14,7.957-2.254S2616.723,936.657,2608.752,938.287Z" transform="translate(-2584.139 -938.162)"/><path class="m" d="M2626.78,1007.4c.041,2.475-1.08,4.5-2.5,4.526s-2.612-1.963-2.654-4.438,1.08-4.5,2.505-4.526S2626.739,1004.923,2626.78,1007.4Z" transform="translate(-2609.958 -977.426)"/></g><path class="k" d="M2580.546,1028.112l7.792-.4a3.419,3.419,0,0,1-3.448,3.256C2580.718,1031.3,2580.546,1028.112,2580.546,1028.112Z" transform="translate(-2507.885 -992.421)"/></g></g><path class="h" d="M2275.371,600.03c-.709,5.589,5.111,10.024,10.287,9.674a12.737,12.737,0,0,0,11.413-10.7c.906-6.086-2.751-10.954-8.409-11.4a7.059,7.059,0,0,0-7.44,9.414c1.14,3.546,4.378,4.869,6.009,3.89a1.62,1.62,0,0,0-.344-3.025,1.59,1.59,0,0,0-1.58.681c-1.347-.535-2.629-2.987-1.759-5.635,1.111-3.382,5.387-3.576,8.042-2,3.381,2.008,3.912,6.331,2.672,9.777a10.4,10.4,0,0,1-8.722,6.742,8.106,8.106,0,0,1-8.588-7.412A.791.791,0,0,0,2275.371,600.03Z" transform="translate(-1570.013 107.407)"/><path class="g" d="M2589.837,513.082l3.674-8.293-4.749-7.729a1.247,1.247,0,0,1,1.19-1.893l9.023.932,5.883-6.9a1.246,1.246,0,0,1,2.167.547l1.9,8.869,8.385,3.461a1.247,1.247,0,0,1,.15,2.231l-7.848,4.55-.7,9.043a1.246,1.246,0,0,1-2.075.832l-6.753-6.057-8.817,2.128A1.247,1.247,0,0,1,2589.837,513.082Z" transform="translate(-1786.371 175.658)"/><path class="i" d="M2782.762,760.615l3.9-7.09,12.1,5.019,6.985-9.663,9.67,2.275,1.152-4.9-12.934-3.044-6.619,9.157-12.589-5.221-5.873,10.669Z" transform="translate(-1917.584 -0.089)"/><path class="i" d="M2057.5,392.38l5.086-8.262-4.084-1.656a1.746,1.746,0,0,1-.962-2.275h0a1.746,1.746,0,0,1,2.275-.962l4.71,1.91,4.548-7.419-4.363-1.769a1.747,1.747,0,0,1-.962-2.275h0a1.747,1.747,0,0,1,2.275-.962l4.989,2.023,5.281-8.5a1.747,1.747,0,0,1,2.14-.7l.761.309a1.747,1.747,0,0,1,.833,2.531l-4.912,8.017,7.233,2.933,5.281-8.5a1.746,1.746,0,0,1,2.139-.7l.831.337a1.747,1.747,0,0,1,.833,2.531l-4.912,8.017,4.084,1.656a1.746,1.746,0,0,1,.962,2.275h0a1.746,1.746,0,0,1-2.274.962l-4.711-1.91-4.478,7.447,4.363,1.769a1.746,1.746,0,0,1,.962,2.275h0a1.747,1.747,0,0,1-2.275.962l-4.988-2.023-5.394,8.761a1.747,1.747,0,0,1-2.144.7l-.89-.361A1.746,1.746,0,0,1,2068.9,397l5.086-8.261-7.233-2.933-5.4,8.761a1.745,1.745,0,0,1-2.143.7l-.891-.361A1.746,1.746,0,0,1,2057.5,392.38Zm18.43-6.619,4.548-7.419-7.233-2.933-4.548,7.419Z" transform="translate(-1419.397 263.609)"/><path class="l" d="M4.365,0h1910.6a4.365,4.365,0,0,1,4.365,4.365v0a4.365,4.365,0,0,1-4.365,4.365H4.365A4.365,4.365,0,0,1,0,4.365v0A4.365,4.365,0,0,1,4.365,0Z" transform="translate(0.442 1071.206)"/></g></svg>